<svg width="20" height="20" viewBox="0 0 20 20" fill="none" xmlns="http://www.w3.org/2000/svg">
<path opacity="0.8" d="M14.42 16.42C14 14.5 13.5 12.73 13 11.17C13.5 11.1 14 11.06 14.58 11.06H14.6C15.53 11.06 16.55 11.18 17.66 11.43C17.28 13.5 16.08 15.27 14.42 16.42ZM10 17.8C8.26 17.8 6.66 17.23 5.36 16.26C5.64 15.81 6.23 14.94 7.18 14.04C8.14 13.11 9.5 12.15 11.23 11.58C11.82 13.25 12.36 15.15 12.77 17.29C11.91 17.62 11 17.8 10 17.8ZM2.2 10C2.2 9.96 2.2 9.93 2.2 9.89C2.42 9.9 2.71 9.9 3.05 9.9H3.06C4.62 9.89 7.36 9.76 10.14 8.89C10.29 9.22 10.44 9.56 10.59 9.92C8.73 10.54 7.27 11.53 6.19 12.5C5.16 13.46 4.45 14.39 4.04 15C2.9 13.66 2.2 11.91 2.2 10ZM6.55 3C7.1 3.65 8.18 5.06 9.34 7.25C7 7.96 4.61 8.12 3.18 8.12C3.14 8.12 3.1 8.12 3.06 8.12H3.05C2.81 8.12 2.6 8.12 2.43 8.11C3 5.87 4.5 4 6.55 3ZM10 2.2C11.84 2.2 13.53 2.84 14.86 3.91C13.84 5.14 12.5 6 11.03 6.65C10 4.67 9 3.25 8.34 2.38C8.88 2.27 9.43 2.2 10 2.2ZM16.13 5.18C17.1 6.42 17.71 7.96 17.79 9.63C16.66 9.39 15.6 9.28 14.6 9.28H14.59C13.79 9.28 13.04 9.35 12.33 9.47C12.16 9.05 12 8.65 11.81 8.26C13.39 7.57 14.9 6.58 16.13 5.18ZM10 0C4.48 0 0 4.48 0 10C0 15.52 4.48 20 10 20C15.52 20 20 15.52 20 10C20 4.48 15.52 0 10 0Z" fill="white"/>
</svg>
