<svg viewBox="0 0 2260 785" xmlns="http://www.w3.org/2000/svg" fill-rule="evenodd" clip-rule="evenodd" stroke-linejoin="round" stroke-miterlimit="2"><path fill="none" d="M0 0h2259.528v784.623H0z"/><path d="M463.857 522.062l-89.383-260.7h-53.63l-89.382 260.7h44.692l23.462-73.74h96.087l23.835 73.74h44.319zM345.053 306.799h5.214L384.53 412.94h-73.368l33.89-106.142zM544.302 335.848v37.243h81.934v37.243h40.967v-74.486H544.302zm-40.967 74.486v74.485h40.967V373.091h-40.967v37.243zm122.9 37.242v-37.242H585.27v37.242h40.967zm40.968 37.243H544.302v37.243h122.9v-37.243zM811.331 527.648c49.906 0 82.307-20.483 82.307-56.609 0-38.36-26.815-49.16-69.272-56.609-42.457-7.076-56.981-10.055-56.981-27.56 0-14.152 15.27-22.345 39.477-22.345 27.187 0 43.947 10.056 45.436 29.794h37.615c.373-38.732-28.304-64.057-81.934-64.057-50.65 0-79.327 23.835-79.327 56.236 0 33.891 21.974 53.257 71.506 59.961 41.34 5.587 54.747 10.056 54.747 24.58 0 14.525-16.387 21.974-43.574 21.974-25.697 0-46.553-5.214-46.926-30.54h-39.85c.745 41.712 24.953 65.175 86.776 65.175zM1007.231 335.848v-37.243h-40.967v37.243h40.967zm-40.967 37.243v-37.243h-40.967v37.243h40.967zm102.418 0v-37.243h-61.45v37.243h61.45zm-61.45 111.728V373.091h-40.968v111.728h40.967zm61.45 37.243v-37.243h-61.45v37.243h61.45zM1218.023 330.262c-25.325 0-45.064 10.428-57.726 25.697v-94.597h-40.223v260.7h40.595v-102.79c0-30.167 20.484-51.768 49.16-51.768 26.07 0 42.83 13.408 42.83 46.926v107.632h40.594V408.844c0-53.63-33.518-78.582-75.23-78.582zM1385.99 335.848v37.243h81.934v37.243h40.967v-74.486h-122.9zm-40.967 74.486v74.485h40.967V373.091h-40.967v37.243zm122.901 37.242v-37.242h-40.967v37.242h40.967zm40.967 37.243h-122.9v37.243h122.9v-37.243zM1699.57 335.848h-61.45v-37.243h-31.656c-1.118 37.243-19.366 40.967-49.533 41.712v32.774h40.967v84.913c0 46.181 27.932 64.058 71.134 64.058h30.539v-36.87h-26.07c-28.305 0-35.38-13.408-35.38-39.105V373.09h61.45v-37.243zM1787.095 298.605v-37.243h-40.967v37.243h40.967zm0 186.214V335.848h-40.967v148.971h40.967zm40.967 37.243v-37.243h-40.967v37.243h40.967zM2024.702 335.848H1901.8v37.243h122.9v-37.243zm-163.868 148.971h40.967V373.091h-40.967v111.728zm163.868 37.243v-37.243H1901.8v37.243h122.9z" fill-rule="nonzero"/></svg>