<svg width="1794" height="267" viewBox="0 0 1794 267" fill="none" xmlns="http://www.w3.org/2000/svg">
<path d="M232.395 260.7L143.012 0H89.382L0 260.7H44.692L68.154 186.96H164.241L188.076 260.7H232.395ZM113.591 45.437H118.805L153.068 151.578H79.7L113.59 45.436L113.591 45.437ZM312.84 74.486V111.729H394.774V148.972H435.741V74.486H312.84ZM271.873 148.972V223.457H312.84V111.729H271.873V148.972ZM394.773 186.214V148.972H353.808V186.214H394.775H394.773ZM435.741 223.457H312.84V260.7H435.74V223.457H435.741ZM579.869 266.286C629.775 266.286 662.176 245.803 662.176 209.677C662.176 171.317 635.361 160.517 592.904 153.068C550.447 145.992 535.923 143.013 535.923 125.508C535.923 111.356 551.193 103.163 575.4 103.163C602.587 103.163 619.347 113.219 620.836 132.957H658.451C658.824 94.225 630.147 68.9 576.517 68.9C525.867 68.9 497.19 92.735 497.19 125.136C497.19 159.027 519.164 178.393 568.696 185.097C610.036 190.684 623.443 195.153 623.443 209.677C623.443 224.202 607.056 231.651 579.869 231.651C554.172 231.651 533.316 226.437 532.943 201.111H493.093C493.838 242.823 518.046 266.286 579.869 266.286V266.286ZM775.769 74.486V37.243H734.802V74.486H775.769ZM734.802 111.729V74.486H693.835V111.729H734.802ZM837.22 111.729V74.486H775.77V111.729H837.22ZM775.77 223.457V111.729H734.802V223.457H775.769H775.77ZM837.22 260.7V223.457H775.77V260.7H837.22ZM986.561 68.9C961.236 68.9 941.497 79.328 928.835 94.597V0H888.612V260.7H929.207V157.91C929.207 127.743 949.691 106.142 978.367 106.142C1004.44 106.142 1021.2 119.55 1021.2 153.068V260.7H1061.79V147.482C1061.79 93.852 1028.27 68.9 986.561 68.9V68.9ZM1154.53 74.486V111.729H1236.46V148.972H1277.43V74.486H1154.53H1154.53ZM1113.56 148.972V223.457H1154.53V111.729H1113.56V148.972ZM1236.46 186.214V148.972H1195.49V186.214H1236.46ZM1277.43 223.457H1154.53V260.7H1277.43V223.457ZM1468.11 74.486H1406.66V37.243H1375C1373.88 74.486 1355.64 78.21 1325.47 78.955V111.729H1366.44V196.642C1366.44 242.823 1394.37 260.7 1437.57 260.7H1468.11V223.83H1442.04C1413.73 223.83 1406.66 210.422 1406.66 184.725V111.728H1468.11V74.485L1468.11 74.486ZM1555.63 37.243V0H1514.67V37.243H1555.63ZM1555.63 223.457V74.486H1514.67V223.457H1555.63ZM1596.6 260.7V223.457H1555.63V260.7H1596.6ZM1793.24 74.486H1670.34V111.729H1793.24V74.486H1793.24ZM1629.37 223.457H1670.34V111.729H1629.37V223.457ZM1793.24 260.7V223.457H1670.34V260.7H1793.24H1793.24Z" fill="white"/>
</svg>
