<svg width="126" height="94" viewBox="0 0 126 94" fill="none" xmlns="http://www.w3.org/2000/svg">
<path d="M66.5232 21.1152C62.9204 21.1206 59.4263 22.3498 56.6137 24.6013C53.801 26.8528 51.8367 29.993 51.0428 33.5073C50.1891 29.6948 47.9587 26.3313 44.779 24.0612C41.5993 21.7911 37.6939 20.774 33.8108 21.2046C29.9277 21.6353 26.34 23.4835 23.735 26.3952C21.1301 29.3069 19.6909 33.0773 19.6934 36.9842V51.4283C19.6934 51.5657 19.748 51.6975 19.8451 51.7947C19.9423 51.8918 20.0741 51.9464 20.2115 51.9464H50.9132C50.9979 51.9222 51.0877 51.9222 51.1723 51.9464H81.874C82.0115 51.9464 82.1433 51.8918 82.2404 51.7947C82.3376 51.6975 82.3922 51.5657 82.3922 51.4283V36.9842C82.3874 32.777 80.7139 28.7434 77.739 25.7684C74.764 22.7935 70.7304 21.12 66.5232 21.1152ZM20.7297 36.9842C20.7342 33.3322 22.0842 29.8099 24.5217 27.0904C26.9592 24.3709 30.3134 22.6449 33.9431 22.2422V50.9101H20.7297V36.9842ZM51.6905 36.9842C51.695 33.3322 53.045 29.8099 55.4825 27.0904C57.92 24.3709 61.2741 22.6449 64.9039 22.2422V50.9101H51.6905V36.9842Z" fill="black"/>
<path d="M70.9923 59.8486H31.0931C29.4439 59.8486 27.8623 60.5037 26.6962 61.6699C25.5301 62.836 24.875 64.4176 24.875 66.0667C24.875 67.7158 25.5301 69.2974 26.6962 70.4635C27.8623 71.6297 29.4439 72.2848 31.0931 72.2848H70.9923C72.6415 72.2848 74.2231 71.6297 75.3892 70.4635C76.5553 69.2974 77.2104 67.7158 77.2104 66.0667C77.2104 64.4176 76.5553 62.836 75.3892 61.6699C74.2231 60.5037 72.6415 59.8486 70.9923 59.8486ZM46.5087 60.885H55.8358V71.2484H46.5087V60.885ZM45.4723 71.2484H36.1452V60.885H45.4723V71.2484ZM56.8721 60.885H66.1992V71.2484H56.8721V60.885ZM25.9113 66.0667C25.9113 64.6924 26.4573 63.3744 27.429 62.4027C28.4008 61.4309 29.7188 60.885 31.0931 60.885H35.1089V71.2484H31.0931C29.7188 71.2484 28.4008 70.7025 27.429 69.7307C26.4573 68.759 25.9113 67.441 25.9113 66.0667V66.0667ZM70.9923 71.2484H67.2382V60.885H70.9923C72.3666 60.885 73.6846 61.4309 74.6564 62.4027C75.6281 63.3744 76.1741 64.6924 76.1741 66.0667C76.1741 67.441 75.6281 68.759 74.6564 69.7307C73.6846 70.7025 72.3666 71.2484 70.9923 71.2484Z" fill="black"/>
<path d="M119.31 56.7399L125.787 0.577757C125.795 0.505061 125.788 0.431472 125.765 0.36181C125.743 0.292148 125.706 0.228007 125.657 0.173599C125.609 0.119125 125.549 0.0754874 125.483 0.0455743C125.416 0.0156611 125.344 0.00013471 125.271 1.46436e-07H97.29C97.1764 -8.51996e-05 97.066 0.0371379 96.9756 0.10595C96.8853 0.174761 96.8201 0.271343 96.79 0.380849L95.08 6.59892H18.2688C18.1403 6.59821 18.0161 6.64529 17.9203 6.73099C17.8246 6.81669 17.7641 6.9349 17.7506 7.06269L16.7557 16.3898L11.8123 16.452C8.26804 16.4986 5.52172 16.54 3.64594 16.5737C0.332226 16.6333 0.332231 16.6333 0.153461 16.8121C0.0920342 16.873 0.0468152 16.9482 0.0219258 17.0311C-0.00296358 17.1139 -0.00672863 17.2016 0.0109671 17.2862L16.0743 92.7658C16.0991 92.8841 16.1644 92.9901 16.259 93.0653C16.3536 93.1405 16.4716 93.1803 16.5925 93.1777H114.701C114.778 93.1773 114.854 93.1596 114.923 93.126C114.993 93.0924 115.054 93.0437 115.102 92.9834C115.161 92.9083 115.199 92.8189 115.211 92.7243L119.31 56.7399ZM18.7351 7.64304H95.4764C95.59 7.64313 95.7004 7.6059 95.7908 7.53709C95.8811 7.46828 95.9464 7.3717 95.9765 7.26219L97.6864 1.04412H124.691L118.266 56.7476H118.146L117.654 62.0485L114.519 89.3251L97.9377 11.7236C97.9124 11.6058 97.8469 11.5004 97.7523 11.4257C97.6577 11.351 97.54 11.3116 97.4195 11.3143H71.6845C71.6094 11.3135 71.535 11.3289 71.4665 11.3597C71.3979 11.3904 71.3369 11.4357 71.2877 11.4924C71.2384 11.5491 71.202 11.6158 71.181 11.688C71.1601 11.7601 71.1551 11.8359 71.1664 11.9102L71.7674 15.7965C68.5004 15.8302 52.4163 15.9856 36.5006 16.1592C29.2048 16.2369 22.9453 16.3095 17.7972 16.3716L18.7351 7.64304ZM17.0044 92.1492L1.15353 17.6697C6.59434 17.5064 49.3435 17.0634 72.3789 16.8406C72.454 16.8414 72.5284 16.826 72.5969 16.7952C72.6654 16.7645 72.7265 16.7192 72.7758 16.6625C72.825 16.6058 72.8614 16.5391 72.8824 16.4669C72.9033 16.3948 72.9083 16.319 72.897 16.2447L72.2986 12.3584H97.0102L114.061 92.1569L17.0044 92.1492Z" fill="black"/>
<path d="M55.8359 60.8853H46.5088V71.2487H55.8359V60.8853Z" fill="white"/>
<path d="M45.4726 60.8853H36.1455V71.2487H45.4726V60.8853Z" fill="white"/>
<path d="M66.2001 60.8853H56.873V71.2487H66.2001V60.8853Z" fill="white"/>
<path d="M70.9924 60.8853H67.2383V71.2487H70.9924C72.3667 71.2487 73.6847 70.7028 74.6565 69.731C75.6282 68.7592 76.1742 67.4413 76.1742 66.067C76.1742 64.6927 75.6282 63.3747 74.6565 62.403C73.6847 61.4312 72.3667 60.8853 70.9924 60.8853Z" fill="white"/>
<path d="M25.9121 66.067C25.9121 67.4413 26.458 68.7592 27.4298 69.731C28.4016 70.7028 29.7196 71.2487 31.0938 71.2487H35.1097V60.8853H31.0938C29.7196 60.8853 28.4016 61.4312 27.4298 62.403C26.458 63.3747 25.9121 64.6927 25.9121 66.067V66.067Z" fill="white"/>
<path d="M117.654 62.0405L118.147 56.7396H118.266L124.691 1.03613H97.6789L95.969 7.2542C95.9389 7.3637 95.8737 7.46029 95.7833 7.5291C95.693 7.59791 95.5825 7.63513 95.4689 7.63505H18.7354L17.8027 16.3766C22.9508 16.3144 29.2025 16.2419 36.5062 16.1642C52.4218 15.9906 68.5059 15.8351 71.7729 15.8014L71.1718 11.9152C71.1606 11.8409 71.1656 11.7651 71.1866 11.6929C71.2075 11.6208 71.2438 11.5541 71.2931 11.4974C71.3424 11.4407 71.4035 11.3954 71.472 11.3647C71.5405 11.3339 71.6149 11.3184 71.69 11.3192H97.4199C97.5404 11.3166 97.658 11.356 97.7526 11.4307C97.8472 11.5054 97.9128 11.6108 97.938 11.7286L114.52 89.3301L117.654 62.0405Z" fill="white"/>
<path d="M51.6904 36.9847V50.9106H64.9038V22.2427C61.2741 22.6453 57.92 24.3714 55.4824 27.0909C53.0449 29.8104 51.6949 33.3327 51.6904 36.9847V36.9847Z" fill="white"/>
<path d="M72.3786 16.84C49.3563 17.0629 6.58635 17.5059 1.15332 17.6691L17.0042 92.1486H114.05L96.9996 12.3501H72.288L72.8865 16.2364C72.8978 16.3107 72.8927 16.3865 72.8718 16.4586C72.8508 16.5307 72.8145 16.5975 72.7652 16.6541C72.7159 16.7108 72.6549 16.7561 72.5863 16.7869C72.5178 16.8176 72.4434 16.8331 72.3683 16.8323L72.3786 16.84ZM70.9925 72.2845H31.0933C29.4442 72.2845 27.8626 71.6294 26.6965 70.4632C25.5303 69.2971 24.8752 67.7155 24.8752 66.0664C24.8752 64.4173 25.5303 62.8357 26.6965 61.6696C27.8626 60.5035 29.4442 59.8483 31.0933 59.8483H70.9925C72.6417 59.8483 74.2233 60.5035 75.3894 61.6696C76.5555 62.8357 77.2106 64.4173 77.2106 66.0664C77.2106 67.7155 76.5555 69.2971 75.3894 70.4632C74.2233 71.6294 72.6417 72.2845 70.9925 72.2845ZM82.3923 36.984V51.428C82.3923 51.5655 82.3377 51.6973 82.2406 51.7944C82.1434 51.8916 82.0116 51.9462 81.8742 51.9462H51.1725C51.0878 51.922 50.998 51.922 50.9134 51.9462H20.2117C20.0743 51.9462 19.9425 51.8916 19.8453 51.7944C19.7481 51.6973 19.6935 51.5655 19.6935 51.428V36.984C19.6911 33.0771 21.1302 29.3067 23.7352 26.395C26.3402 23.4833 29.9279 21.6351 33.8109 21.2044C37.694 20.7737 41.5995 21.7909 44.7792 24.061C47.9588 26.3311 50.1892 29.6946 51.0429 33.507C51.8966 29.6946 54.127 26.3311 57.3067 24.061C60.4864 21.7909 64.3918 20.7737 68.2749 21.2044C72.158 21.6351 75.7457 23.4833 78.3507 26.395C80.9556 29.3067 82.3948 33.0771 82.3923 36.984V36.984Z" fill="white"/>
<path d="M20.7295 36.9847V50.9106H33.9429V22.2427C30.3131 22.6453 26.959 24.3714 24.5215 27.0909C22.084 29.8104 20.734 33.3327 20.7295 36.9847V36.9847Z" fill="white"/>
</svg>
